<svg xmlns="http://www.w3.org/2000/svg" xmlns:xlink="http://www.w3.org/1999/xlink" fill="none" version="1.1" width="60" height="60" viewBox="0 0 60 60"><rect x="0" y="0" width="60" height="60" rx="0" fill="#FFFFFF" fill-opacity="0"/><g><path d="M29.637688,16.7826385L49.608696,16.7826257C50.928764,16.784109100000002,51.998516,17.853863699999998,52,19.1739311L52,45.000019C51.998524,46.32008,50.928764,47.389843,49.608696,47.391323L10.3913047,47.391323C9.0712379,47.389847,8.0014805173,46.32008,8,45.000019L8,14.3913136C8.0014818857,13.0712469,9.0712376,12.0014912358,10.3913047,12.0000090080757L23.666665000000002,12.0000090080757C24.301228,11.9982650902,24.910124,12.25047323,25.357624,12.70038217L29.299658,16.6424351C29.389038,16.7325335,29.510777,16.7830448,29.637688,16.7826385ZM20.036797999999997,22.615247C19.643484,22.687587999999998,19.623756,22.703372,19.564564,23.083489999999998L19.564564,23.08086C19.497425,23.461067,19.469217,23.847127999999998,19.480377,24.233055C19.539572,26.175739,19.960503,28.042139,20.665565,29.84935C21.508743000000003,32.013003999999995,22.741283,33.917545000000004,24.471048,35.491946999999996C24.600784,35.600582,24.663755,35.769478,24.636791,35.93652C24.577595,36.519192000000004,24.527611,37.103182000000004,24.468418,37.68454C24.326355,39.043236,24.805164,40.153341,25.907476,40.941204C27.08872,41.786932,28.319944,42.566900000000004,29.53933,43.358706C29.73868,43.491138,29.972183,43.562878,30.211508,43.565212C30.77187,43.565212,31.275673,43.14826,31.337498,42.499825C31.436155,41.460741,31.515079,40.416401,31.586113,39.374689000000004C31.62294,38.855152000000004,31.609789,38.851203999999996,32.116222,38.782808C33.465835999999996,38.605244,34.52211,37.971277,35.246902,36.815132C35.62048,36.220621,35.804638,35.562977000000004,35.870407,34.873764C35.888824,34.664631,35.971695,34.612019000000004,36.169005999999996,34.601498C37.260798,34.542309,38.352591000000004,34.477858999999995,39.444382000000004,34.394997000000004C40.3507,34.327919,40.811096,33.376961,40.324394,32.583839C39.982386000000005,32.028786,39.619331,31.485573,39.265485999999996,30.934464C38.885332,30.339952,38.507809,29.745441,38.126339,29.153561C37.429171,28.069761,36.426826,27.483141,35.140354,27.472618L35.091684,27.472618C34.369522,27.472618,33.648678000000004,27.597571000000002,32.929146,27.675172L32.852852,27.679119C32.753401,27.683216,32.657679,27.640945000000002,32.593716,27.564688C30.883682,25.668038,28.769815,24.388260000000002,26.375765,23.53069C25.027367,23.047743,23.625469000000002,22.72976,22.200651,22.58368C21.845484,22.546852,21.487693999999998,22.521861,21.129906,22.521861C20.763441,22.519418,20.39753,22.550677999999998,20.036797999999997,22.615247ZM25.164837,30.419971Q25.272629,30.419971,25.379902,30.409409Q25.487173,30.398844,25.592892,30.377815Q25.698612,30.356789,25.801762,30.325502Q25.904911,30.294216,26.004496,30.252968Q26.104082,30.211723,26.199144,30.160915Q26.294209,30.110107,26.383833,30.050226Q26.473457,29.990347,26.556782,29.921972Q26.640104,29.853596,26.716324,29.777382Q26.792545,29.70117,26.860928,29.617853Q26.92931,29.534538,26.989193,29.444921Q27.04908,29.355305,27.099892,29.26025Q27.150703,29.165195,27.191952,29.065619Q27.233204,28.966042,27.264494,28.862904Q27.295784,28.759764,27.316811,28.654053Q27.337841,28.548344,27.348406,28.441082Q27.358973,28.33382,27.358973,28.226038Q27.358973,28.118258,27.348408,28.010996Q27.337841,27.903734,27.316811,27.798022Q27.295784,27.692312,27.264494,27.589171Q27.233204,27.486032,27.191952,27.386454Q27.150703,27.286879,27.099892,27.191824Q27.04908,27.096769000000002,26.989193,27.007151999999998Q26.92931,26.917536,26.860928,26.834221Q26.792545,26.750906,26.716324,26.674692Q26.640104,26.598480000000002,26.55678,26.530106Q26.473457,26.461729,26.383831,26.401848Q26.294207,26.341969,26.199142,26.291162Q26.10408,26.240355,26.004494,26.199106999999998Q25.904907,26.157862,25.80176,26.126575000000003Q25.69861,26.095288,25.59289,26.074261Q25.487171,26.053234,25.379902,26.042669Q25.272629,26.032105,25.164837,26.032104Q25.057047,26.032105,24.949776,26.042669Q24.842503,26.053234,24.736782,26.074260000000002Q24.631062,26.095287,24.527912,26.126575000000003Q24.424763,26.157862,24.325176,26.199106Q24.22559,26.240353,24.130529,26.291161000000002Q24.035465,26.341969,23.945841,26.401848Q23.856216,26.461729,23.772893,26.530105Q23.689569,26.598480000000002,23.613349,26.674692Q23.537129999999998,26.750906,23.468747999999998,26.834221Q23.400365999999998,26.917537,23.34048,27.007153000000002Q23.280596,27.096769000000002,23.229782999999998,27.191824Q23.17897,27.286879,23.13772,27.386454999999998Q23.096472,27.486032,23.065182,27.589171999999998Q23.033892,27.692312,23.012861,27.798021Q22.991835000000002,27.903733000000003,22.981270000000002,28.010996Q22.970703999999998,28.118258,22.970703,28.226038Q22.970703999999998,28.33382,22.981268999999998,28.441082Q22.991835000000002,28.548344,23.012862,28.654053Q23.033892,28.759764,23.065182,28.862904Q23.096472,28.966042,23.13772,29.065619Q23.17897,29.165195,23.229782999999998,29.26025Q23.280596,29.355305,23.340481,29.44492Q23.400367,29.534538,23.468747999999998,29.617853Q23.537129999999998,29.70117,23.613349,29.777382Q23.689569,29.853596,23.772893,29.92197Q23.856216,29.990347,23.94584,30.050226Q24.035465,30.110107,24.130527,30.160915Q24.22559,30.211723,24.325176,30.252968Q24.424763,30.294216,24.527912,30.325502Q24.631062,30.356789,24.736782,30.377815Q24.842503,30.398844,24.949776,30.409409Q25.057047,30.419971,25.164837,30.419971ZM33.506699,40.374182000000005C34.057856,40.931866,34.614275,41.480343000000005,35.164118,42.036711C35.294342,42.169554000000005,35.435091,42.251102,35.598202,42.251102C35.662659000000005,42.251102,35.729744,42.237949,35.800777,42.211642999999995C36.061228,42.115627,36.187508,41.922279,36.199345,41.651329000000004C36.207237,41.480343000000005,36.203293,41.309353,36.207237,41.138365C36.2125,40.935810000000004,36.21513,40.862154000000004,36.294056,40.862154000000004C36.338779,40.862154000000004,36.403234,40.883198,36.50452,40.917395L38.359251,41.535583C38.449184,41.568163,38.543808,41.585932,38.639435,41.588194C38.731421999999995,41.588692,38.822001,41.565596,38.902517,41.521114C39.1656,41.37117,39.26557,41.106798,39.160337,40.781921C38.955133000000004,40.146637,38.739407,39.513981,38.52894,38.878695C38.436861,38.605114,38.443438,38.598537,38.739407,38.593275C38.919617,38.590647000000004,39.098513,38.593275,39.277409,38.58407C39.522446,38.585503,39.741068,38.430416,39.820675,38.198689C39.912754,37.957991,39.853559000000004,37.748858999999996,39.67861,37.571295C39.103775,36.993881,38.527624,36.416470000000004,37.951475,35.841685999999996C37.848915000000005,35.73065,37.702599,35.670491999999996,37.551590000000004,35.677275C37.238522,35.681221,37.064886,35.819326000000004,36.953077,36.137626999999995C36.543446,37.356674,35.686417,38.374863000000005,34.555080000000004,38.986549C34.29726,39.128599,34.028917,39.243031,33.751363999999995,39.339045999999996C33.247562,39.510035,33.134436,39.996693,33.506699,40.374182000000005Z" fill-rule="evenodd" fill="#333333" fill-opacity="1"/></g></svg>